<svg width="135" height="26" viewBox="0 0 135 26" fill="none" xmlns="http://www.w3.org/2000/svg">
<path d="M10.5074 16.0249V10.6233H21.0863V25.2798C18.7751 25.7599 16.2496 26 13.5095 26H9.39949C6.01615 26 3.59778 25.3158 2.14437 23.9474C0.71479 22.5549 0 20.2862 0 17.1413V8.85872C0 5.71376 0.71479 3.45706 2.14437 2.08864C3.59778 0.696214 6.01615 0 9.39949 0H11.8655C14.8438 0 17.3694 0.216067 19.4423 0.6482V6.12188H10.293C8.48217 6.12188 7.57677 7.08218 7.57677 9.00277V16.9972C7.57677 18.9178 8.48217 19.8781 10.293 19.8781H13.8669V16.0249H10.5074Z" fill="black"/>
<path d="M42.3599 25.6399L41.252 21.8587H33.7467L32.6388 25.6399H24.7761L33.3179 0.36011H41.6809L50.2226 25.6399H42.3599ZM37.4994 8.96676L35.4265 16.097H39.5723L37.4994 8.96676Z" fill="black"/>
<path d="M61.6288 9.97507H65.0598C66.1082 9.97507 66.6324 9.51893 66.6324 8.60665V7.63435C66.6324 6.72207 66.1082 6.26593 65.0598 6.26593H61.6288V9.97507ZM74.0662 7.05817V8.28255C74.0662 9.31487 73.8279 10.2151 73.3514 10.9834C72.8749 11.7516 72.2315 12.3038 71.4215 12.6399C72.3269 12.88 73.0416 13.4201 73.5658 14.2604C74.09 15.1006 74.3521 16.133 74.3521 17.3573V18.6537C74.3521 23.3112 71.7193 25.6399 66.4537 25.6399H54.0521V0.36011H66.5251C68.9554 0.36011 70.8139 0.936287 72.1005 2.08864C73.411 3.21699 74.0662 4.8735 74.0662 7.05817ZM61.6288 19.7341H65.0241C65.5721 19.7341 66.001 19.59 66.3107 19.3019C66.6204 19.0139 66.7753 18.6057 66.7753 18.0776V17.2493C66.7753 16.7211 66.6204 16.313 66.3107 16.0249C66.001 15.7368 65.5721 15.5928 65.0241 15.5928H61.6288V19.7341Z" fill="black"/>
<path d="M87.7108 25.6399H80.1341V0.36011H87.7108V25.6399Z" fill="black"/>
<path d="M107.502 0.36011H115.078V25.6399H107.716L101.676 13.4681V25.6399H94.0635V0.36011H101.426L107.502 12.5319V0.36011Z" fill="black"/>
<path d="M129.014 25.6399H121.437V0.36011H129.014V25.6399Z" fill="black"/>
<path d="M132.437 2.97316V0.929111H133.042C133.231 0.929111 133.383 0.949759 133.496 0.991053C133.613 1.03235 133.696 1.09746 133.747 1.1864C133.8 1.27217 133.827 1.38334 133.827 1.51993C133.827 1.64381 133.793 1.75022 133.723 1.83916C133.654 1.9281 133.55 1.99957 133.411 2.05357L133.979 2.97316H133.6L133.113 2.13934H132.763V2.97316H132.437ZM132.763 1.88681H133.042C133.19 1.88681 133.301 1.85664 133.373 1.79628C133.449 1.73593 133.487 1.64699 133.487 1.52946C133.487 1.39605 133.446 1.30711 133.364 1.26264C133.285 1.21499 133.172 1.19117 133.023 1.19117H132.763V1.88681ZM133.052 3.92609C132.784 3.92609 132.532 3.87527 132.295 3.77362C132.059 3.67198 131.851 3.53221 131.671 3.35433C131.494 3.17327 131.356 2.96363 131.255 2.72539C131.154 2.48716 131.104 2.23304 131.104 1.96305C131.104 1.68987 131.154 1.43576 131.255 1.2007C131.356 0.962465 131.494 0.754408 131.671 0.576527C131.851 0.395469 132.059 0.254117 132.295 0.152471C132.532 0.0508242 132.784 0 133.052 0C133.323 0 133.575 0.0508242 133.808 0.152471C134.045 0.254117 134.251 0.395469 134.428 0.576527C134.608 0.754408 134.748 0.962465 134.849 1.2007C134.95 1.43576 135 1.68987 135 1.96305C135 2.23304 134.95 2.48716 134.849 2.72539C134.748 2.96363 134.608 3.17327 134.428 3.35433C134.251 3.53221 134.045 3.67198 133.808 3.77362C133.575 3.87527 133.323 3.92609 133.052 3.92609ZM133.052 3.65927C133.285 3.65927 133.503 3.61639 133.704 3.53062C133.909 3.44168 134.089 3.31939 134.243 3.16374C134.398 3.0081 134.518 2.82863 134.603 2.62534C134.691 2.41887 134.735 2.1981 134.735 1.96305C134.735 1.72799 134.691 1.50881 134.603 1.30552C134.518 1.09905 134.398 0.917995 134.243 0.762348C134.089 0.606702 133.909 0.485996 133.704 0.400232C133.503 0.311292 133.285 0.266822 133.052 0.266822C132.818 0.266822 132.599 0.311292 132.394 0.400232C132.193 0.485996 132.015 0.606702 131.86 0.762348C131.706 0.917995 131.584 1.09905 131.496 1.30552C131.411 1.50881 131.368 1.72799 131.368 1.96305C131.368 2.1981 131.411 2.41887 131.496 2.62534C131.584 2.82863 131.706 3.0081 131.86 3.16374C132.015 3.31939 132.193 3.44168 132.394 3.53062C132.599 3.61639 132.818 3.65927 133.052 3.65927Z" fill="black"/>
</svg>
