<?xml version="1.0" encoding="iso-8859-1"?>
<!-- Generator: Adobe Illustrator 24.0.2, SVG Export Plug-In . SVG Version: 6.00 Build 0)  -->
<svg version="1.1" xmlns="http://www.w3.org/2000/svg" xmlns:xlink="http://www.w3.org/1999/xlink" x="0px" y="0px"
	 viewBox="0 0 64 64" style="enable-background:new 0 0 64 64;" xml:space="preserve">
<g id="&#x421;&#x43B;&#x43E;&#x439;_1">
	<path d="M48,8H16c-4.418,0-8,3.582-8,8v32c0,4.418,3.582,8,8,8h32c4.418,0,8-3.582,8-8V16C56,11.582,52.418,8,48,8z M50,27
		c-3.964,0-6.885-1.09-9-2.695V38.5C41,44.841,35.841,50,29.5,50S18,44.841,18,38.5S23.159,27,29.5,27h2v5h-2
		c-3.584,0-6.5,2.916-6.5,6.5s2.916,6.5,6.5,6.5s6.5-2.916,6.5-6.5V14h5c0.018,1.323,0.533,8,9,8V27z"/>
</g>
<g id="&#x421;&#x43B;&#x43E;&#x439;_2">
</g>
</svg>